<svg width="512" height="512" viewBox="0 0 135.467 135.467" xml:space="preserve" xmlns="http://www.w3.org/2000/svg"><path style="fill:#000" d="m125.37 198.683-1.876-2.275-.38-.91c-.209-.5-.771-1.453-1.25-2.119l-.868-1.21-1.588.161c-.873.089-3.357.28-5.52.426l-3.933.264-3.445-.403c-4.39-.513-7.713-1.229-11.717-2.525l-3.184-1.03-3.695-1.831-3.696-1.832-3.146-2.2L77.925 181l-2.785-2.654c-9.375-8.934-14.636-18.987-16.866-32.226l-.435-2.584.143-.373c.079-.205.573-.576 1.098-.825l.955-.454 1.509.167c.83.092 3.639.641 6.243 1.221l4.735 1.055.485.439.486.439.134.823.555 3.47.421 2.646.904 2.73c1.103 3.333 2.795 6.788 4.79 9.788l1.5 2.255 2.657 2.758 2.657 2.758 2.258 1.686 2.258 1.685 2.778 1.438c3.25 1.682 5.873 2.663 8.996 3.366l2.249.506 4.718.268 4.718.267.441.24c.243.132 1.662 1.484 3.154 3.003l2.713 2.763-.152.765-.152.765.773.739.772.739 1.496-.56 1.495-.559v-.901l-2.655-3.3c-1.46-1.816-2.931-3.508-3.27-3.76l-.618-.46-5.261-.4c-2.894-.22-5.522-.46-5.839-.533l-.577-.134-1.045-1.918-1.044-1.917-1.074-3.308a546.605 546.605 0 0 1-2.171-6.879l-1.098-3.572-.705-.702c-.634-.631-21.752-15.578-25.972-18.383l-1.72-1.143-3.085-.806c-1.696-.443-6.34-1.574-10.319-2.513-3.978-.94-7.93-1.912-8.78-2.16l-1.546-.453-2.852-3.06a419.695 419.695 0 0 1-5.267-5.77l-2.415-2.71v-.756l2.05.137c2.438.162 4.976.547 28.575 4.333 9.932 1.594 18.353 2.898 18.713 2.898h.656l.443-.675.442-.675-.257-.257c-.142-.142-5.13-1.627-11.086-3.302-5.956-1.674-11.783-3.333-12.95-3.687l-2.12-.644-.856-.883-.856-.883v-.44c0-.243.239-1.045.53-1.783.29-.739.529-1.56.529-1.825v-.481l-2.362-.98-2.361-.978-1.026-1.113-1.026-1.113-1.416-2.51c-3.914-6.939-6.537-12.432-5.937-12.432.481 0 21.017 9.078 44.29 19.58 3.275 1.477 6.282 2.808 6.684 2.957l.731.272.394-.151c.216-.084.393-.265.393-.403v-.252l-5.225-3.029c-2.874-1.665-8.71-5.019-12.968-7.451-4.258-2.433-7.93-4.61-8.159-4.84l-.416-.416.128-.67.128-.67-.373-.57-.374-.57.799-1.005.798-1.005-.332-.404c-.182-.222-1.421-1.209-2.753-2.194l-2.422-1.79-.795-2.068c-.438-1.137-1.878-5.215-3.201-9.061l-2.405-6.994v-.712c0-.392-.18-1.218-.397-1.837-.219-.619-.397-1.301-.397-1.517v-.392l.375.144c.206.08 4.105 2.852 8.665 6.162 17.453 12.67 30.57 22.186 38.982 28.28 28.81 20.874 30.03 21.789 30.03 22.521v.33l-3.77 3.416a880.576 880.576 0 0 1-7.607 6.793l-3.837 3.379v.866l1.323.636c.728.35 3.83 1.735 6.892 3.078l5.57 2.442 1.483.95 1.484.949.475 1.264.474 1.265 2.233 2.182c2.769 2.706 2.887 2.622 4.369-3.108l.65-2.514.327-3.175.327-3.175-.16-3.175-.162-3.175-.405-2.114c-2.366-12.355-10.927-22.899-22.723-27.984l-2.363-1.019-2.962-.764-2.963-.763-3.305-.383-3.306-.383-.82-.424c-.452-.234-4.58-3.346-9.174-6.917l-8.352-6.492v-1.036l.968-.405.968-.404-.532-.592c-.292-.325-.616-.74-.72-.922l-.187-.331.634-.241c1.319-.502 7.02-1.662 9.953-2.026l3.05-.378H116.695l2.812.413c5.685.836 10.614 2.37 15.813 4.92l3.21 1.576 2.588 1.718c3.507 2.329 6.108 4.541 9.538 8.114l2.884 3.004 2.028 2.894 2.027 2.893 1.597 3.043c2.791 5.32 4.558 10.534 5.636 16.637l.59 3.339-.004 5.688-.005 5.689-.603 3.44-.602 3.44-.891 2.942a56.208 56.208 0 0 1-8.642 17.165l-2.16 2.91-3.206 3.176-3.207 3.175-2.032 1.455-2.03 1.455.123.733.124.733-.549 1.468-.55 1.468.167.167.167.167 1.186-.317c.652-.175 1.363-.318 1.579-.318h.393v.356c0 .395-3.41 8.89-4.117 10.258l-.447.864-.364-.498-.364-.497v-1.383c0-2.17-.524-2.872-1.261-1.691-.402.644-.792.668-1.43.091l-.483-.438-2.051.59c-4.558 1.31-5.659 1.683-6.019 2.043l-.376.376.16 1.712.16 1.711h-.84zm.684-2.817.024-1.654-.21.662-.21.661.07-1.121c.037-.617.168-1.212.29-1.323l.222-.202-.195.397-.194.397.399-.49.399-.489.282.174.282.175v-.596l.53.168.529.168v-.634l.992.159.992.16-.397-.28-.397-.28.654.145c.36.08.936.075 1.282-.012l.628-.158-.356-.252-.356-.253.654.146c.36.08.936.075 1.282-.012l.628-.158-.356-.245-.356-.246.926.164.927.165-.397-.277-.397-.276.266-.004c.147-.002.653.106 1.125.242l.858.246v-.229c0-.126-.268-.278-.596-.338l-.595-.109.662.026.661.025-.048 1.72-.048 1.72.276-1.518.276-1.518-.153-.4-.154-.4h-.649c-.357 0-2.586.535-4.953 1.19-2.367.655-4.59 1.19-4.938 1.19h-.633l.104-.33.105-.33 1.835-.623c1.01-.342 3.428-1.035 5.374-1.54l3.537-.919.728.302.728.301.277.61.278.61-.408 1.621-.408 1.621h-.215c-.118 0-.256-.327-.306-.727l-.092-.728-.138 1.003-.139 1.003.396.32.396.32-.199-.33-.199-.331h.913l-.165-.166-.165-.165.499-.43.499-.43.826-1.978.827-1.978-.151-.602-.151-.601h.522l-.168-.44-.17-.441.355.22.355.218-.17-.44-.168-.44h.496l-.17-.44-.168-.44.354.218.355.22-.163-.424-.162-.423.297-.1.298-.098-.172-.447-.172-.448-.603.027-.604.026.662.19.661.188-1.18.194c-.648.106-1.703.425-2.343.708l-1.165.515-.235-.145-.236-.146v.544l-.44-.17-.44-.168.208.338.209.337-.596-.189-.595-.189.199.322.198.321-.595-.189-.596-.189.15.243.151.244-1.065-.052-1.065-.052-.31-.349-.308-.349.41.252c.224.139.105-.029-.265-.372-.37-.344-.514-.538-.317-.431l.357.193-.3-.561c-.165-.309-.363-.561-.44-.561-.075 0-.064.119.026.264.09.146.1.265.025.265-.077 0-.274-.253-.44-.561l-.3-.561.358.187c.196.103.06-.072-.305-.388-.364-.316-.5-.49-.304-.388l.357.187-.3-.56c-.165-.31-.363-.562-.44-.562-.075 0-.064.12.026.265.09.145.101.264.025.264-.076 0-.274-.252-.44-.56l-.3-.562.358.187c.196.103.06-.071-.305-.388-.363-.316-.483-.485-.264-.376l.397.198-.728-.692c-.4-.38-.728-.764-.728-.853v-.16l.331.17c.182.095.033-.087-.33-.403-.364-.317-.501-.491-.305-.388l.357.187-.3-.561c-.165-.309-.363-.561-.439-.561-.076 0-.065.119.025.264.09.146.101.265.025.265-.076 0-.274-.253-.44-.561l-.3-.561.358.187c.196.103.06-.072-.305-.388-.363-.316-.5-.49-.304-.388l.357.187-.3-.56c-.165-.31-.363-.562-.439-.562-.076 0-.065.12.025.265.09.145.101.264.025.264-.076 0-.274-.252-.439-.56l-.3-.562.357.187c.196.103.06-.071-.305-.388-.363-.316-.5-.49-.304-.388l.357.188-.3-.562c-.165-.308-.363-.56-.439-.56-.076 0-.065.118.025.264.09.145.101.265.025.265-.076 0-.274-.253-.439-.562l-.3-.56.357.186c.196.103.06-.071-.304-.387-.364-.317-.501-.491-.305-.388l.357.187-.3-.561c-.165-.309-.363-.561-.439-.561-.076 0-.065.119.025.264.09.146.101.265.025.265-.076 0-.274-.253-.439-.561l-.3-.561.357.187c.196.103.06-.072-.304-.388s-.501-.49-.305-.388l.357.187-.3-.56c-.314-.589-.7-.806-.41-.231.25.492-.66-.647-.976-1.223l-.271-.495.317.196.317.197-.3-.562c-.165-.308-.363-.56-.439-.56-.076 0-.065.118.025.264.09.145.101.265.025.265-.076 0-.274-.253-.439-.562l-.3-.56.317.195.318.197-.3-.561c-.166-.31-.363-.562-.44-.562-.076 0-.053.138.05.306l.19.305-.31-.191-.31-.192.146-.237.147-.237-.54-1.057c-.695-1.364-.681-1.508.19-2.005l.727-.415-.661.174c-.364.096-.807.29-.984.432l-.323.258.658 1.297c.362.714.598 1.298.525 1.298-.073 0-.436-.6-.808-1.333l-.675-1.333.145-.234c.118-.191 2.111-.933 4.107-1.53l.397-.118-.397.315-.397.314.397-.118c2.02-.603 5.568-1.86 5.484-1.944-.058-.058-.8.133-1.647.425-.848.291-1.59.483-1.648.425-.058-.058 1.36-.58 3.153-1.16l3.257-1.055 1.19-.006 1.192-.006-.53.233-.529.234 1.059-.129 1.058-.129-.53.261-.528.262 1.058-.146 1.058-.146-.397.284-.397.284.927-.154.926-.155-.397.303-.397.303.926-.164.926-.164-.397.288-.397.289.767-.18.767-.178-.185.3-.186.3.454-.174.454-.174-.216.35-.217.35.253-.155.252-.156v1.818h-.406l.152.396.152.397h-.293c-.5 0-.32.46.237.606l.529.138v-.24c0-.131.11-.21.246-.173.135.036.441-.172.68-.463.24-.291.36-.38.267-.197l-.169.333.67-.305.67-.305-.127-.207-.128-.207.486-.154c.268-.085.835-.518 1.26-.962l.775-.808.157-1.769.157-1.77.032 1.588.032 1.588-.327.589c-.18.323-.735.889-1.233 1.256-.498.368-.783.668-.633.668.15 0 .713-.387 1.253-.86l.981-.86.201-1.322.2-1.323-.19-.92-.191-.921-1.807-1.634c-2.393-2.162-2.572-1.877-.211.337l1.844 1.73-1.801-1.524c-.991-.839-1.926-1.757-2.077-2.04l-.276-.516.29.18c.395.244.373.117-.223-1.273l-.515-1.2-1.328-.674c-1.54-.78-2.189-.895-.817-.144 1.144.626.88.688-.377.089-.508-.243-.873-.523-.811-.623l.112-.182-4.423-1.936c-2.433-1.064-5.28-2.348-6.327-2.852l-1.903-.917-.133-.345-.132-.345 6.362-5.639c3.499-3.101 6.826-6.036 7.393-6.52l1.032-.882v-.969l-3.373-2.493c-1.855-1.372-8.493-6.163-14.75-10.648a35512.644 35512.644 0 0 1-18.257-13.093C80.932 87.57 65.335 76.381 64.592 75.861l-.842-.589-.155.252-.156.252.813 2.538.813 2.538.228-.141.228-.14.722 2.184c.398 1.201.776 2.363.841 2.581l.119.397-.315-.397-.314-.397.119.397c.065.218.324 1.023.576 1.788l.457 1.391.27-.167.272-.168-.19.596-.188.595.321-.198.321-.199-.188.596-.19.595.322-.199.321-.198-.189.595-.189.596.265-.164.266-.164.166.433c.091.238.104.496.027.572-.076.076-.138-.02-.138-.214s-.062-.29-.139-.215c-.076.077-.063.334.028.572l.166.433.266-.164.265-.163-.19.595-.188.595.265-.164.265-.163.157.409.157.409-.327-.189c-.74-.426.979 1.213 2.131 2.032l1.245.885-.265-.396c-.145-.218.033-.089.397.286s.547.499.408.275c-.14-.224.42.307 1.245 1.18 1.726 1.829 1.758 1.937.837 2.798-.378.353-.814.88-.97 1.171l-.283.53.386-.265.387-.265-.488.449c-.529.487-.558.706-.157 1.189l.261.315.421-.162.421-.161-.19.306-.189.307.384-.147.384-.148.2.324.2.323-.305-.188c-.168-.104-.306-.127-.306-.05 0 .076.253.273.561.438l.561.3-.196-.317-.196-.317.561.3c.309.165.561.411.561.546 0 .136.253.381.561.547l.561.3-.196-.317-.196-.318.561.3c.309.166.561.411.561.547 0 .135.253.38.561.546l.561.3-.196-.317-.196-.318.561.3c.309.166.561.412.561.547 0 .135.253.381.561.546l.562.3-.18-.29c-.336-.543.138-.295.833.436.38.4.607.58.503.4l-.19-.328.41.157.409.157-.172.278-.172.278.342-.211.342-.212.516.634c.284.348.431.472.328.276l-.187-.357.561.3c.309.165.561.435.561.6v.3l.173-.173.172-.172.377.459.376.458-.184-.357-.184-.357.561.3c.309.166.562.436.562.6v.3l.172-.173.172-.172.377.459.376.459-.184-.357-.184-.357.562.3c.308.165.56.435.56.6v.299l.173-.172.172-.173.377.46.376.458-.184-.357-.183-.357.56.3c.31.165.562.411.562.546 0 .136.252.382.56.547l.562.3-.196-.317-.196-.318.56.3c.31.166.562.412.562.547 0 .135.252.38.56.546l.562.3-.18-.29c-.335-.543.138-.295.833.436.381.4.6.567.485.37l-.207-.357.56.3c.31.166.562.436.562.6v.3l.172-.173.172-.172.377.459c.207.252.301.31.209.128l-.168-.33h.16c.09 0 .473.327.853.727.381.4.607.579.501.397-.329-.57.1-.362.822.397.381.4.607.58.503.4l-.19-.328.419.16c.23.089.545.398.7.687l.281.527-.328.302-.328.302.175-.529.175-.529-.467.564c-.256.31-.74.705-1.076.877l-.61.313-13.413-5.948c-21.167-9.385-33.143-14.623-34.633-15.148l-1.375-.484-.212.214-.212.214 2.249 4.365c1.237 2.4 2.348 4.426 2.468 4.501.12.076-.752-1.718-1.938-3.987l-2.158-4.125.086-.44.087-.441.843.71.844.71 2.818 4.952c1.55 2.723 3.097 5.318 3.437 5.768l.618.816 2.467.87c1.356.478 2.836 1.039 3.288 1.246l.822.376.347.65.348.649 9.15-.017 9.15-.016-1.192-.579c-.654-.318-1.25-.647-1.322-.73-.158-.18-3.67-2.117-6.086-3.356l-1.72-.881.662.176c.97.26 9.829 4.025 20.74 8.816 4.262 1.871 4.006 1.826 5.017.886l.783-.727-.165.463-.165.463h.198c.108 0 .462-.186.785-.412l.588-.412v-1.234l-.463-.543-.463-.542-12.039-6.79c-6.62-3.734-12.47-7.066-12.996-7.405l-.957-.616-.129-.67-.128-.671.557-.505.557-.506.312.115.313.115.31-.58.31-.578-.27-.591-.27-.592-3.3-2.416-3.3-2.417-.452-1.125c-.249-.62-1.448-3.952-2.664-7.407-1.217-3.454-2.349-6.536-2.516-6.849l-.304-.568-.232.367-.232.366-.008-.264c-.004-.146-.086-.563-.182-.926l-.175-.662.46.378c.75.615 1.186 1.648 3.858 9.147l2.545 7.144 3.376 2.521c3.639 2.718 3.866 2.951 3.872 3.975l.004.676-.934.905-.934.906.074.36.074.362 5.424 3.044c9.17 5.145 17.222 9.433 18.632 9.92l1.344.465 7.78.009 7.78.009-1.514-1.468a56.368 56.368 0 0 0-2.973-2.654c-.801-.653-1.775-1.496-2.164-1.875l-.707-.688 3.837 2.604c9.85 6.686 23.229 16.332 23.45 16.908l.142.37-1.808 1.697c-.995.934-4.07 3.694-6.835 6.134-2.765 2.44-5.316 4.713-5.668 5.05l-.64.614.325.393.326.392 4.35 1.915c2.393 1.053 4.31 1.956 4.26 2.006-.098.098-6.571-2.696-8.357-3.607l-1.079-.55v-.939l2.977-2.672c1.637-1.47 3.215-2.937 3.506-3.26l.529-.585-1.059.624-1.058.625-30.824.076-30.824.076-2.778-.43c-1.528-.235-4.624-.824-6.88-1.309l-4.1-.88-4.234-4.387-4.233-4.387-.926-.412-.926-.412.665.135c.366.074 4.176.68 8.467 1.344 6.699 1.039 34.048 5.387 36.776 5.848l.93.157.526-.595.526-.594-.69.443-.691.444-.368-.13c-.202-.07-8.583-1.437-18.624-3.036-26.229-4.178-26.722-4.254-27.485-4.254h-.693v.774l1.389 1.55c.764.854 2.923 3.23 4.798 5.28l3.41 3.729.404-.155.404-.156-.209.338-.209.338.596-.189.595-.189-.187.304-.188.303.723-.181.723-.182-.205.332-.204.331.893-.176.893-.177-.397.297-.397.296.893-.176.893-.177-.188.304-.187.303.723-.181.723-.182-.194.314-.194.314.723-.182.723-.181-.205.331-.204.332.893-.177.893-.177-.397.297-.397.297.893-.177.893-.177-.188.304-.187.303.723-.181.723-.182-.194.314-.194.314.723-.181.723-.182-.205.332-.205.331.893-.177.893-.176-.396.296-.397.297.893-.177.893-.176-.188.303-.187.304.723-.182.723-.181-.194.314-.194.313.723-.181.723-.182-.194.314-.194.314.723-.182.723-.181-.194.314-.193.314.723-.182.723-.181-.194.313-.194.314.723-.181.723-.182-.194.314-.194.314.723-.182.723-.181-.194.314-.193.313.723-.181.723-.182-.205.332-.205.331.595-.189.596-.189-.209.338-.209.338.457-.175.457-.176.777.402c.428.221.777.465.777.543 0 .078-.149.064-.33-.03-.182-.094-.04.066.314.354l.645.525.32-.123.32-.123.2.324.2.323-.346-.214-.346-.214.181.294.182.294.322-.121.323-.121.793.683.794.684-.926-.573-.926-.573.768.66.768.659.367-.14.368-.142-.077.363-.077.364.467-.08.467-.078-.07.344-.07.343.489-.084.49-.084-.162.262-.162.262.73.512.731.512.34-.12.338-.12-.074.356-.075.356.53-.091.529-.092-.197.2-.196.199.282.34.282.339.388-.15.388-.148-.077.363-.077.363.468-.079.467-.078-.07.343-.07.343.528-.091.53-.092-.197.2-.196.199.282.34.281.339.389-.15.388-.148-.077.363-.077.363.49-.084.49-.084-.163.262-.162.262.731.512.73.512.34-.12.339-.119-.075.356-.074.355.49-.084.49-.084-.163.263-.162.262.731.511.73.512.34-.12.339-.119-.075.356-.074.355.49-.084.489-.083-.162.262-.162.262.73.511.732.512.339-.12.339-.119-.075.356-.074.355.49-.083.489-.084-.162.262-.162.262.73.512.731.511.34-.12.338-.119-.074.356-.074.356.49-.084.489-.084-.162.262-.162.262.73.512.731.511.34-.119.338-.12-.074.356-.075.356.468-.079.467-.079-.07.344-.07.343.362-.077.364-.077-.16.418-.16.417.39.15.39.15-.146.237-.146.237h.617l-.152.397-.152.397h.256c.348 0 .325-.198-.172-1.5l-.428-1.12-3.871-2.704c-8.024-5.605-20.144-14.273-20.144-14.406 0-.077.506.204 1.125.624 13.363 9.076 22.44 15.346 23.013 15.897l.722.695 2.521 7.517c1.387 4.134 2.644 7.663 2.793 7.843l.272.327 2.703.176c1.486.096 3.867.286 5.291.422l2.59.248.755.39.755.39 3.932 4.665c4.396 5.215 4.57 5.467 4.583 6.631l.01.828-.331.266c-.182.146-.748.354-1.257.46l-.926.194.595-.643c.328-.354.596-.837.596-1.074v-.43l-1.372-1.802c-.754-.99-2.654-3.364-4.222-5.273l-2.85-3.472-.607-.167c-.334-.09-2.915-.343-5.736-.56l-5.128-.394-.32-.265-.32-.265-.171.172-.172.172.272.327.272.328.586-.128.585-.128-.397.285-.397.284 2.514-.111 2.514-.112-1.191.224-1.19.224 3.042-.086 3.043-.086-1.19.223-1.192.224 2.25-.094 2.248-.094-.661.24-.662.241.874-.125.873-.124-.136.218-.135.22.916.887c.504.488.916.788.916.667 0-.12.268.122.595.539.328.417.568.843.534.947-.034.104.295.443.73.753l.793.564-.133.215-.133.216.667.437.668.437-.139.224-.138.224.668.438.667.437-.138.224-.139.224.668.438.667.437-.148.24-.148.24.544.29.544.292-.141.229-.142.228.333.121.332.121-.306.497-.306.497-.29-.066-.288-.066v.56l-.265-.163-.265-.164v.544l-.44-.169-.44-.169.219.355.22.354-.441-.169-.44-.169v.569l-.397-.152-.397-.152v.532l-.7-.076-.7-.076-.114.397-.114.397.28-.397.281-.397.004.285.004.285.75-.11.75-.11.81.81.812.812.181 1.564.182 1.564-.353.205-.354.204.191-.211.19-.211-.539-.758c-.296-.416-.68-.755-.852-.753l-.312.004.348.22c.191.122.377.416.411.653.077.524 1.206 1.765 1.606 1.765h.289zm-.798 1.168-.136-.22h.385c.212 0 .385.1.385.22 0 .122-.112.221-.249.221s-.31-.1-.385-.22zm-.846-.878-.189-.306.306.19c.305.188.41.421.188.421-.064 0-.201-.137-.305-.305zm12.593-1.944c0-.073.06-.132.132-.132.073 0 .132.06.132.132 0 .073-.059.133-.132.133a.133.133 0 0 1-.132-.133zm1.64-1.99c.304-.731.598-1.284.653-1.228.125.124-.902 2.557-1.078 2.557-.07 0 .121-.598.425-1.33zm-8.04-.44c.191-.076.42-.066.507.021l.16.16-.507-.02-.507-.021zm-6.565-.216a.133.133 0 0 1 .265 0c0 .073-.06.133-.132.133a.133.133 0 0 1-.133-.133zm.53-.264c0-.073.059-.132.132-.132.073 0 .132.059.132.132 0 .073-.06.132-.132.132a.133.133 0 0 1-.133-.132zm7.887-.049c.191-.076.42-.067.507.021l.16.16-.507-.02-.507-.022zm-7.27-.26.176-.176.177.176.176.176h-.706zm14.209-.388c-.005-.093.164-.57.377-1.059l.386-.89.001.397c.001.381-.745 1.896-.764 1.552zm-13.768-3.007c0-.073.06-.133.132-.133a.133.133 0 0 1 0 .265.133.133 0 0 1-.132-.132zm7.232-.31.176-.175.177.176.176.176h-.706zm-8.29-1.013c0-.073.059-.133.132-.133a.133.133 0 0 1 0 .265.133.133 0 0 1-.133-.132zm-1.059-1.323c0-.073.06-.133.132-.133a.133.133 0 1 1 0 .265.133.133 0 0 1-.132-.132zm-1.058-1.323c0-.073.06-.132.132-.132.073 0 .132.06.132.132 0 .073-.06.132-.132.132a.133.133 0 0 1-.132-.132zm-1.216-1.496-.189-.306.306.19c.168.103.305.24.305.305 0 .22-.234.116-.422-.19zm-2.373-2.671-.777-.86.86.777c.473.427.86.814.86.86 0 .204-.218.024-.943-.777zm-12.55-2.448c0-.073.059-.132.132-.132.072 0 .132.06.132.132 0 .073-.06.133-.132.133a.133.133 0 0 1-.133-.133zm32.292-14.057c.138-.364.251-1.066.251-1.561v-.9l-.49-.262c-.27-.144-2.026-.652-3.903-1.129l-3.412-.866.609-.092.61-.091 2.697.582c1.484.32 3.03.752 3.437.96l.74.376.276.608.277.607-.278 1.009c-.153.554-.232 1.084-.175 1.177.058.092-.12.185-.393.205l-.498.038zm1.838-.23a.133.133 0 1 1 .265 0c0 .073-.06.132-.132.132a.133.133 0 0 1-.133-.132zm-17.903-1.103.176-.176.177.176.176.177h-.705zm-21.52-.22a.133.133 0 0 1 .265 0c0 .073-.06.132-.132.132a.133.133 0 0 1-.132-.132zm22.314-.044.176-.177.177.177.176.176h-.706zm-22.843-.75a.133.133 0 0 1 .265 0c0 .073-.06.132-.132.132a.133.133 0 0 1-.133-.132zm-.793-.53c0-.072.06-.131.132-.131.073 0 .132.06.132.132 0 .073-.06.132-.132.132a.133.133 0 0 1-.132-.132zm-1.323-.949-.662-.54.58.283c.32.156.655.402.744.547.239.386.078.316-.662-.29zm-1.323-.902c0-.073.06-.132.132-.132.073 0 .132.06.132.132 0 .073-.06.132-.132.132a.133.133 0 0 1-.132-.132zm-1.323-.95-.662-.54.581.283c.32.156.654.402.743.547.239.386.079.316-.662-.29zm-1.323-.902c0-.073.06-.133.132-.133a.133.133 0 1 1 0 .265.133.133 0 0 1-.132-.132zm-.951-.703-.19-.305.306.189c.168.104.306.241.306.305 0 .22-.234.116-.422-.189zm-.794-.529-.189-.305.306.189c.305.188.41.422.188.422-.064 0-.201-.138-.305-.306zm-.9-.62c0-.073.059-.133.131-.133a.133.133 0 1 1 0 .265.133.133 0 0 1-.132-.132zm-1.324-.95-.661-.541.58.284c.32.156.654.402.744.547.238.386.078.316-.663-.29zm-1.323-.902a.133.133 0 0 1 .265 0c0 .072-.06.132-.132.132a.133.133 0 0 1-.133-.132zm50.271-.189c0-.079-.18-.575-.4-1.102-.22-.527-.341-.958-.268-.958.209 0 .955 1.918.804 2.069-.075.074-.136.07-.136-.008zm-51.594-.761-.661-.541.58.284c.32.156.654.402.744.547.239.386.078.316-.663-.29zm-1.323-.902a.133.133 0 0 1 .265 0c0 .072-.06.132-.132.132a.133.133 0 0 1-.133-.132zm-.95-.703-.19-.305.306.189c.305.188.41.422.189.422-.065 0-.202-.138-.306-.306zm52.544.173a.133.133 0 0 1 .265 0c0 .073-.06.133-.132.133a.133.133 0 0 1-.133-.133zm-53.446-.793a.133.133 0 0 1 .265 0c0 .072-.06.132-.132.132a.133.133 0 0 1-.133-.132zm-.793-.53c0-.072.06-.132.132-.132.073 0 .132.06.132.132 0 .073-.06.133-.132.133a.133.133 0 0 1-.132-.133zm50.535-.264c-.364-.208-.542-.378-.397-.378.146 0 .562.17.926.378s.543.378.397.378c-.145 0-.562-.17-.926-.378zm-51.487-.438-.188-.305.305.188c.305.189.41.423.189.423-.064 0-.202-.138-.306-.306zm49.635-.356c-.364-.208-.542-.378-.397-.378.146 0 .562.17.926.378s.543.378.397.378c-.146 0-.562-.17-.926-.378zm-50.535-.264c0-.073.06-.133.132-.133a.133.133 0 0 1 0 .265.133.133 0 0 1-.132-.132zm-.952-.703-.189-.305.306.189c.305.188.41.422.189.422-.064 0-.202-.138-.306-.306zm-.794-.529-.188-.305.305.188c.168.104.306.242.306.306 0 .22-.234.116-.423-.189zm-.9-.62c0-.073.06-.133.132-.133.073 0 .132.06.132.132 0 .073-.06.133-.132.133a.133.133 0 0 1-.132-.133zm-.794-.53c0-.073.06-.132.132-.132.073 0 .133.06.133.132a.133.133 0 0 1-.265 0zm-2.01-2.29-.188-.305.305.189c.305.188.41.422.189.422-.064 0-.202-.138-.306-.306zm-1.587-.264-.189-.306.305.19c.168.103.306.24.306.305 0 .22-.234.116-.422-.19zm.794-.265-.19-.305.306.189c.168.103.306.24.306.305 0 .22-.234.116-.422-.189zm-.794-.529-.189-.305.305.188c.305.189.41.423.19.423-.065 0-.202-.138-.306-.306zm-29.196-11.16c-2.539-2.812-4.668-5.282-4.733-5.489-.064-.207.163-.018.505.418.342.437 2.355 2.699 4.473 5.027 3.846 4.228 4.654 5.161 4.468 5.158-.054-.001-2.175-2.303-4.713-5.115zm48.403-16.448a.133.133 0 0 1 .265 0c0 .073-.06.132-.132.132a.133.133 0 0 1-.133-.132zm-1.852-1.058a.133.133 0 1 1 .265 0c0 .072-.06.132-.132.132a.133.133 0 0 1-.133-.132zm-10.583-6.086c0-.073.06-.132.132-.132.073 0 .133.06.133.132a.133.133 0 0 1-.265 0zm-1.852-1.058c0-.073.06-.132.132-.132.073 0 .132.06.132.132 0 .073-.06.132-.132.132a.133.133 0 0 1-.132-.132zM78 105.048c0-.073.06-.133.132-.133a.133.133 0 0 1 0 .265.133.133 0 0 1-.132-.132zm-3.333-2.026-.189-.305.306.189c.305.188.41.422.189.422-.064 0-.202-.138-.306-.306zm2.093-3.234.173-.451-1.252-1.21-1.253-1.212 1.389 1.131 1.389 1.131v.34c0 .187-.14.426-.31.531l-.31.192zm-5.144-4.86-.363-.464.463.363c.44.346.58.563.363.563-.055 0-.263-.208-.463-.463zm-1.058-.794-.363-.463.463.363c.254.2.463.408.463.463 0 .217-.218.077-.563-.363zm-2.877-6.417v-.352l.176.176.177.176-.177.177-.176.176zm-.265-.793v-.353l.177.176.176.177-.176.176-.177.176zm-.264-.794v-.353l.176.177.177.176-.177.176-.176.177zm-2.117-6.085v-.353l.177.176.176.177-.176.176-.177.176zm-.264-.794v-.353l.176.176.176.177-.176.176-.176.177zm-.265-.794v-.353l.176.177.177.176-.177.176-.176.177zm61.824 117.563-.176-.176v.705l.176-.176.177-.176zm-2.822-1.808c-.181-.218-.464-.393-.628-.388l-.298.008.514.388c.66.5.83.496.412-.008zm-.794-1.058c-.18-.218-.456-.397-.612-.397h-.283l.514.388c.664.502.793.505.381.008zm-.529-.794a.133.133 0 0 0-.132-.132.133.133 0 0 0-.132.132c0 .073.06.132.132.132.073 0 .132-.059.132-.132zm-11.7-2.706a13.276 13.276 0 0 0-2.117-.002l-1.132.102 2.117.002 2.117.002zm4.16-.385-1.059-.183 2.381.094 2.382.094-.794-.234-.794-.233 1.588.11 1.587.109-.529-.247-.53-.247.765.062.763.062.292-.461.292-.46-2.73-2.74-2.73-2.74-1.368.094-1.369.094.53-.271.529-.272-3.126.139-3.126.14.187-.303.187-.303-1.257.189-1.256.188.199-.322.199-.321-.99.186-.991.185.191-.31.192-.31-.86.19-.86.189.198-.322.199-.32-.562.178-.563.178v-.6l-.562.178-.562.179.198-.322.199-.321-.596.189-.595.189.199-.321.198-.322-.595.19-.596.188.199-.32.198-.322-.595.189-.596.189.21-.338.208-.338-.44.169-.44.169v-.496l-.44.169-.441.169.22-.355.218-.354-.44.169-.44.169v-.544l-.265.163-.265.164v-.592l-.24.15c-.133.08-.43.076-.66-.013l-.42-.16.145-.235.145-.233-.39.15-.39.149-.55-.55c-.303-.302-.55-.467-.55-.366 0 .1-.187-.049-.416-.331-.23-.283-.342-.365-.25-.183l.168.33h-.16c-.089 0-.472-.327-.853-.727l-.692-.728.198.397c.11.219-.06.1-.376-.264l-.575-.662.184.397.184.397-.624-.674c-.343-.37-.565-.544-.492-.386.073.158-.165-.02-.53-.395-.363-.375-.552-.499-.419-.275.133.224-.224-.077-.794-.669-.57-.591-.916-.88-.77-.642.145.239-.274-.142-.931-.847a70.316 70.316 0 0 0-2.665-2.666c-.81-.76-1.217-1.205-.907-.987.31.219.081-.069-.51-.638-.59-.57-.84-.867-.555-.662l.518.374-.73-.969c-.402-.533-.895-1.032-1.096-1.11-.202-.077-.505-.399-.674-.716l-.309-.576.357.187c.197.103.06-.071-.304-.387-.364-.317-.5-.491-.304-.388l.357.187-.3-.561c-.166-.309-.363-.561-.44-.561-.075 0-.064.119.026.264.09.146.1.265.025.265-.077 0-.274-.253-.44-.561l-.3-.561.3.184.298.185-.984-1.99-.984-1.989-.187.116c-.103.063-.255-.063-.338-.28l-.152-.396.17-.44.168-.44-.282.174-.282.174-.166-.433c-.091-.239-.104-.496-.028-.572.077-.076.139.02.139.214s.062.29.138.214c.077-.076.064-.333-.027-.571l-.166-.434-.266.164-.265.164.19-.595.188-.596-.338.21-.338.208.177-.461.177-.462-.167-.665-.167-.666-.245.356-.246.356.164-.926.165-.926-.29.397-.291.397.145-1.059.145-1.058-.267.53-.266.528.13-1.19.13-1.19-.254.528-.254.53.118-1.456.118-1.455-.25.662-.25.661.144-1.366.145-1.366-.296-.552c-.163-.304-.44-.55-.617-.548l-.321.004.397.268.396.269-.793-.184c-.437-.1-1.092-.272-1.456-.382l-.661-.199.53-.049.528-.049-.661-.212c-.364-.116-.9-.211-1.19-.211h-.53l.662.211.661.212h-.53c-.29 0-.826-.095-1.19-.212l-.661-.211.529-.053.53-.053-.662-.212c-.364-.116-.9-.212-1.191-.212h-.53l.662.212.662.212-.53.001c-.29 0-1.124-.16-1.852-.356l-1.322-.357 1.19.148c2.077.258 1.03-.112-1.931-.684-3.125-.603-3.493-.639-2.699-.264l.53.25-.662-.087-.662-.086-.037 1.604-.038 1.604.232-.662.232-.661-.127 1.097c-.07.604-.048 1.491.048 1.972l.175.875.22-.517.22-.517-.131 1.19-.13 1.191.266-.529.267-.53-.145 1.06-.145 1.058.29-.397.29-.397-.164.926-.164.926.296-.397.297-.397-.164.926-.165.926.302-.397.302-.396-.161.793-.162.794.294-.397.294-.397-.164.75-.165.75.304-.188.303-.187-.189.595-.188.595.32-.198.322-.199-.178.629-.178.628.305-.397.305-.396-.137.62c-.076.342-.074.788.005.991l.141.37.282-.174.282-.174-.17.443-.17.443.296.65.296.65.271-.167.27-.167-.173.453-.175.454.8 1.584.8 1.584.29-.179.29-.18-.13.368-.131.368.372.736.372.737.298-.185.298-.184-.16.418-.16.417 1.336 1.941c2.69 3.907 7.479 9.072 10.668 11.507l1.059.808.367-.128.368-.128-.173.278-.172.279.731.512.73.511.34-.119.339-.12-.075.356-.074.356.49-.084.489-.084-.157.253-.156.254.725.476c.4.262.936.46 1.194.442l.469-.035-.147.239-.148.238 1.002.503 1.001.502.368-.13.367-.13-.182.297-.183.295.454-.174.454-.174-.19.307-.19.306.455-.174.454-.174-.164.266-.165.265.91.434.91.434.445-.17.445-.171-.174.282-.174.282.395.151.396.152.44-.169.44-.169-.174.282-.174.282.37.142c.203.078.649.08.99.005l.621-.138-.397.296-.397.296.794-.162.794-.162-.353.25-.353.249.61.16c.335.087.91.094 1.279.014l.669-.144-.397.294-.397.294.794-.161.794-.162-.397.302-.397.302.926-.164.926-.165-.397.297-.397.297.926-.165.926-.164-.397.29-.396.29 1.058-.144 1.058-.145-.529.266-.53.267 1.192-.13 1.19-.131-.529.254-.53.254 1.456-.118 1.455-.118-.661.244-.662.244 1.72-.111 1.72-.111-.606.193-.606.193h5.368l5.369.002zm-10.98-.618a69.012 69.012 0 0 1-5.19-1.055l-2.678-.67-.498.162-.498.163.34-.245.34-.245-1.04-.312-1.04-.311-.49.16-.491.159.396-.286.397-.285-.529-.046a9.562 9.562 0 0 0-1.058-.02l-.53.024.359-.146.357-.147-2.303-1.026-2.304-1.025-.278.171-.278.172.183-.295.182-.296-1.076-.549-1.077-.55-.217.134-.216.134-.502-.403-.502-.403.595.289c.91.44.708.118-.326-.521l-.921-.57-.276.171-.276.17.073-.35.072-.35h-1.058v-.75l-.367-.122-.368-.123.21.34.21.34-.323-.2c-.178-.11-.257-.266-.176-.347.186-.185-.355-.858-.69-.858h-.247l.199.33.198.332-.454-.369c-.25-.203-.392-.43-.317-.505.181-.181-.382-.846-.718-.846h-.264l.363.46c.2.254-.232-.03-.96-.632-1.62-1.339-6.022-5.878-7.274-7.501l-.918-1.19.458.362.458.363v-.264c0-.344-.667-.897-.856-.709-.08.08-.42-.24-.755-.711l-.61-.857.351.217.351.217-.122-.368c-.068-.202-.252-.367-.41-.367-.157 0-.385-.109-.507-.241l-.22-.241.33.19c.507.292.437.135-1.123-2.523-3.141-5.353-6.63-15.963-6.456-19.63l.027-.574.224.926c.123.51.476 2.057.785 3.44 1.205 5.405 2.765 9.512 5.348 14.078l1.603 2.834 2.05 2.722c7.78 10.324 18.738 17.02 31.788 19.427l2.465.454 5.292.02c2.91.01 6.278-.026 7.484-.082l2.191-.1.172.171.172.172-.307.307-.307.306-1.395.205c-.767.113-3.717.267-6.555.342l-5.16.137zm-21.961-8.462a.133.133 0 0 0-.132-.132.133.133 0 0 0-.133.132.133.133 0 0 0 .265 0zm-2.117-1.587a.133.133 0 0 0-.132-.132.133.133 0 0 0-.132.132c0 .073.06.132.132.132.073 0 .132-.06.132-.132zm-4.04-3.638c-1.52-1.492-3.33-3.367-4.02-4.167l-1.255-1.456.33.648c.366.72 7.16 7.687 7.496 7.687.117 0-1.031-1.22-2.551-2.712zm-6.391-7.283-.478-.456.316.618.317.618.162-.162.16-.16zm51.045 20.578c.09-.145.223-.264.296-.264.072 0 .058.119-.032.264-.09.146-.223.265-.295.265-.073 0-.06-.12.03-.265zm-.025-.835-.19-.305.306.189c.168.104.306.241.306.305 0 .221-.234.116-.422-.189zm-30.535-2.34-.396-.256h.264c.146 0 .443.115.662.256l.396.257h-.264c-.146 0-.443-.116-.662-.257zm-.793-.397c0-.073.06-.132.132-.132.073 0 .132.06.132.132 0 .073-.06.133-.132.133a.133.133 0 0 1-.132-.133zm-2.646-1.323c0-.072.06-.132.132-.132.073 0 .132.06.132.132 0 .073-.06.133-.132.133a.133.133 0 0 1-.132-.133zm-.794-.397-.397-.256.315-.004a.616.616 0 0 1 .479.26c.203.329.111.329-.397 0zm30.005-.305-.189-.305.306.188c.305.189.41.422.188.422-.064 0-.201-.137-.305-.305zm-32.386-1.15c0-.073.06-.132.132-.132.073 0 .132.06.132.132 0 .073-.06.133-.132.133a.133.133 0 0 1-.132-.133zm1.303-10.65-.642-.727.728.642c.68.6.849.813.641.813-.047 0-.374-.327-.727-.727zm-4.107-4.869-.188-.305.305.189c.168.103.306.24.306.305 0 .22-.234.116-.423-.189zm-13.071-.488c-.156-.291-.224-.53-.151-.53.073 0 .26.239.415.53.156.291.224.53.151.53-.072 0-.26-.239-.415-.53zm-.91-1.51-.18-.474.329.326c.18.18.262.393.18.474-.08.082-.229-.065-.328-.326zm-.413-.739c0-.073.06-.132.132-.132.073 0 .133.06.133.132a.133.133 0 0 1-.265 0zm-1.14-2.13c-.97-1.98-.88-2.215.112-.29.44.85.754 1.591.7 1.645-.054.054-.42-.555-.811-1.355zm12.782.542c0-.072.06-.132.132-.132a.133.133 0 0 1 0 .265.133.133 0 0 1-.132-.133zm-.265-.529c0-.072.06-.132.132-.132.073 0 .133.06.133.132a.133.133 0 0 1-.265 0zm-.265-.529a.133.133 0 0 1 .265 0c0 .073-.06.132-.132.132a.133.133 0 0 1-.133-.132zm-.264-.529c0-.073.06-.132.132-.132.073 0 .132.06.132.132 0 .073-.06.132-.132.132a.133.133 0 0 1-.132-.132zm-.265-.53a.133.133 0 0 1 .265 0c0 .074-.06.133-.132.133a.133.133 0 0 1-.133-.132zm-.264-.528c0-.073.06-.133.132-.133a.133.133 0 0 1 0 .265.133.133 0 0 1-.132-.132zm-12.7-.53c0-.072.06-.132.132-.132a.133.133 0 0 1 0 .265.133.133 0 0 1-.132-.132zm-.265-.661v-.353l.177.177.176.176-.176.176-.177.177zm-.529-1.323v-.353l.176.177.177.176-.177.177-.176.176zm11.642-2.381v-.353l.176.176.176.177-.176.176-.176.177zM60.05 146.72v-.662l.133.33c.074.183.074.48 0 .662l-.133.331zm12.7-.53v-.661l.133.33c.074.183.074.48 0 .662l-.133.33zm-11.022-3.175-.794-.202h.662c.363 0 1.018.091 1.455.202l.794.202h-.662c-.364 0-1.019-.09-1.455-.202zm73.507 42.97 1.238-.421v-.446c0-.653-.718-1.569-1.58-2.014l-.752-.39-1.218-2.233c-.67-1.229-1.288-2.586-1.374-3.016l-.157-.783.887-.685c.488-.377 1.659-1.254 2.603-1.95 4.422-3.261 10.772-10.628 7.375-8.557-.49.298-1.111.543-1.383.543l-.493.001.179-1.19.178-1.191h-.162c-.089 0-.612.259-1.161.575l-.999.575-.458-.176-.457-.175.081-1.517.081-1.517-1.587-.449c-.873-.247-1.904-.458-2.291-.47l-.704-.021-6.225 2.142c-3.424 1.178-6.427 2.288-6.672 2.468l-.447.327.334.64c.735 1.41 11.874 19.31 12.377 19.889l.403.463h.573c.315 0 1.13-.19 1.81-.422zm3.222-.867.794-.302-.794.152-.794.15-.397.432-.396.431.396-.28c.219-.155.755-.417 1.191-.583zm1.648-.458c-.088-.088-.316-.098-.507-.021l-.347.139.507.02.507.022zm-1.834-3.06c11.688-7.84 19.398-18.958 22.386-32.28l.679-3.027.32-3.867.32-3.867-.316-3.923-.317-3.924-.543-2.646c-.3-1.455-1.016-4.074-1.594-5.82l-1.05-3.175-1.554-3.175c-7.292-14.894-20.824-25.033-37.47-28.074l-2.635-.481-5.424.003-5.424.003-2.117.33c-3.703.577-6.326 1.123-7.144 1.487-.436.194-1.022.395-1.3.446l-.508.092-.068.337-.068.338.134-.272c.074-.149.347-.27.606-.27h.47l7.511 5.724c4.131 3.149 7.953 6.02 8.494 6.38l.984.654 3.647.483c5.822.772 9.219 1.722 13.824 3.866l2.505 1.166 2.919 1.957c1.605 1.077 3.693 2.64 4.639 3.475.946.834 2.077 1.735 2.513 2.001l.794.485h5.519l5.518.002-.183-.463c-.101-.255-.221-.642-.267-.86-.168-.799-1.057-2.805-2.022-4.56-1.354-2.463-.85-2.016 1.201 1.066l1.71 2.568 1.583 3.307c1.88 3.928 2.988 7.191 3.907 11.51l.676 3.175.142 5.218.143 5.218-.32 2.587c-.35 2.844-1.152 6.744-1.596 7.759l-.283.649.143-.662c.079-.363.37-1.673.648-2.91s.65-3.425.827-4.863l.323-2.614-.167-4.662c-.091-2.564-.263-5.138-.38-5.72l-.215-1.059-.193 3.032-.193 3.032-.323.205-.323.205-3.366.004-3.366.004-.419-1.52c-4.53-16.462-15.214-27.509-30.155-31.177l-2.646-.65-3.282-.389-3.282-.39-1.003-.597c-.552-.33-4.454-3.247-8.673-6.485-4.218-3.238-7.786-5.887-7.928-5.887h-.259l.054.37c.03.203.207.554.393.778l.339.408.335-.129.335-.128.373.475.373.475-.53-.397-.528-.397.35.447.35.448.328-.126.328-.126.513.604.512.605-.661-.53-.662-.528.488.577.488.578.338-.13.337-.13.84 1.061.84 1.06.351-.134.35-.135.852 1.075.851 1.075.284-.175.283-.176.95 1.046c.523.575.831.856.686.623-.146-.232.14.001.633.518l.899.94-.342-.53-.341-.529.898.94c.494.517.78.749.634.515-.146-.233.14 0 .634.516.494.517.792.756.661.532l-.237-.407.662.682c.363.376.602.553.529.395-.073-.158.148.016.492.387l.624.674-.184-.397-.184-.397.575.661c.316.364.499.514.406.334l-.17-.328.41.157.409.157-.131.213-.131.212.595-.13.596-.131-.368.26-.368.26 1.823-.095 1.824-.094-.794.244-.794.243 1.72-.13 1.72-.129-.397.288-.397.288 1.19-.163 1.191-.164-.397.29-.397.29 1.059-.162 1.058-.162-.397.3-.397.301.926-.164.926-.165-.397.297-.396.297.926-.165.926-.164-.397.302-.397.302.75-.164.75-.165-.188.304-.188.303.596-.189.595-.189-.198.322-.199.321.595-.189.596-.189-.199.321-.198.322.595-.19.596-.188-.21.338-.208.337.44-.169.44-.168.396.151.395.152-.129.21-.13.208.396.152.395.152.44-.17.441-.168-.19.306-.189.307.454-.174.454-.175-.19.307-.189.306.454-.174.454-.174-.19.306-.188.307.454-.174.454-.175-.19.307-.19.307.455-.175.454-.174-.217.35-.216.35.341-.21.342-.212.516.634c.284.348.439.484.345.302l-.171-.33h.16c.089 0 .473.327.853.727.38.4.606.58.501.397l-.191-.33h.174c.096 0 .54.386.99.86.448.472.72.68.606.462l-.21-.396.625.673c.343.371.515.49.382.265-.132-.225.225.074.794.665.57.59.857.824.639.519-.218-.306.215.103.962.909a69.83 69.83 0 0 0 2.92 2.92c.859.801 1.372 1.338 1.141 1.192-.231-.145.003.135.52.622.516.488.76.802.542.699l-.397-.188.674.624c.371.344.544.565.385.492-.16-.073.013.149.384.492l.674.625-.397-.185-.397-.184.662.575.661.575-.397-.175-.396-.174.458.376.46.377-.173.172-.172.172h.3c.164 0 .434.253.599.561l.3.561-.357-.184-.357-.183.459.376.459.377-.173.172-.172.172h.649l-.164.265-.163.264h.591l-.163.265-.164.265h.592l-.164.264-.163.265h.591l-.163.264-.164.265h.544l-.169.44-.169.44.282-.174.282-.174.16.42c.09.23.095.527.013.66l-.149.24h.544l-.169.44-.169.44.355-.219.354-.219-.169.44-.169.44h.569l-.152.398-.152.397h.569l-.152.396-.153.397h.57l-.153.397-.152.397h.548l-.168.53-.168.528h.6l-.167.53-.168.529h.622l-.166.661-.166.662h.598l-.174.926-.173.926h.568l-.177 1.72-.176 1.72h.602V144.867h-.602l.176 1.72.177 1.72h-.568l.173.925.174.926h-.598l.166.662.166.661h-.597l.166.662.166.661h-.537l.139.53.138.528h-.574l.152.397.153.397h-.57l.153.397.152.397h-.569l.152.397.152.397h-.569l.152.396.153.397h-.617l.163.265.164.264h-.544l.14.363.138.363-.43.431c-.238.237-.334.435-.214.439.12.004.014.127-.235.272l-.452.263.154.4.154.402-.364-.077-.363-.077.084.49.084.489-.271-.168-.271-.167-.372.736-.372.736.13.368.13.367-.295-.183-.296-.182.174.454.174.454-.306-.19-.307-.19.175.455.174.454-.307-.19-.306-.19.174.455.174.454-.35-.217-.35-.216.188.305.189.306h-.592l.165.266.165.267-.412.158-.413.158.14.225.139.225-.668.438-.667.437.13.21.129.21-1.587 1.375-1.587 1.374.173.28.173.28-.276-.171-.276-.17-.97 1.183c-.533.65-1.081 1.155-1.219 1.121-.138-.033-.676.415-1.196.997-.52.582-.864.88-.765.662.1-.219-.139-.04-.53.397l-.709.793.175-.396.174-.397-.499.61-.499.611-.502.074c-.276.04-.543.197-.593.347l-.09.273.671-.129.672-.128v1.166l.951 1.7.951 1.702.522.279.52.278-.292.353-.293.353.342.155c.188.086.044.083-.32-.007-1.026-.251-1.286-.564-2.54-3.06-1.211-2.412-1.34-2.598-1.34-1.932 0 .218.106.397.236.397h.236l-.163.265-.164.264h.592l-.164.265-.163.264h.591l-.163.265-.164.265h.592l-.164.264-.163.265h.591l-.163.264-.164.265h.649l-.16.16-.161.161.631.682.632.68-.16.258-.158.257.287-.177.287-.178.166.27c.312.504.952.269 2.992-1.1zm-1.278.383c.358-.259 1.569-1.126 2.689-1.926 8.646-6.177 14.505-13.841 18.507-24.21.562-1.455 1.025-2.487 1.03-2.295.035 1.512-3.718 9.296-6.465 13.408l-1.944 2.91-2.36 2.646c-3.207 3.594-9.046 8.478-11.58 9.685l-.53.253zm.273-8.359c0-.045.387-.432.86-.86l.86-.777-.777.86c-.724.802-.943.982-.943.777zm-.396-.446c.09-.146.223-.265.295-.265.073 0 .06.12-.03.265-.09.145-.224.264-.297.264-.072 0-.058-.119.032-.264zm3.317-2.258c-.006-.15.647-.923 1.45-1.715l1.46-1.442-.134-.35-.134-.348.247.153.247.152 1.036-1.528c.997-1.471 2.168-3.585 2.168-3.914v-.158l-.262.161-.261.162.166-.433.166-.433.201.326.201.325.434-.84.435-.84-.184-.298-.184-.298.272.169.272.168.797-1.781c1.193-2.67 2.088-5.947 2.688-9.851l.224-1.455.03.794c.05 1.331-.755 5.395-1.58 7.97l-.78 2.436-1.544 3.044c-1.972 3.889-7.384 11.044-7.43 9.824zm5.546-8.458c0-.073.06-.132.132-.132.073 0 .133.06.133.132a.133.133 0 1 1-.265 0zm1.058-1.852a.133.133 0 0 1 .265 0c0 .073-.06.132-.132.132a.133.133 0 0 1-.133-.132zm4.83-15.875.005-1.058.115.598c.063.33.06.806-.005 1.059l-.12.46zm-12.116-29.567-1.312-1.39 1.389 1.314c.764.722 1.389 1.347 1.389 1.389 0 .197-.245-.022-1.466-1.313zm-12.028-8.004c0-.072.06-.132.132-.132.073 0 .132.06.132.132 0 .073-.059.133-.132.133a.133.133 0 0 1-.132-.133zm-24.905-10.65-.363-.462.463.363c.44.346.581.563.363.563-.055 0-.263-.208-.463-.463zm-2.381-1.851-.363-.463.463.363c.44.346.58.563.363.563-.055 0-.263-.209-.463-.463zm-4.762-3.704-.364-.463.463.363c.441.345.581.563.364.563-.055 0-.264-.209-.463-.463zm33.106 89.76a.133.133 0 0 0-.132-.133.133.133 0 0 0-.132.133c0 .072.06.132.132.132.073 0 .132-.06.132-.132zm-33.073-2.382a.133.133 0 0 0-.132-.132.133.133 0 0 0-.132.132c0 .073.06.133.132.133.073 0 .132-.06.132-.133zm-1.058-.529a.133.133 0 0 0-.132-.132.133.133 0 0 0-.133.132.133.133 0 0 0 .265 0zm-.53-.264a.133.133 0 0 0-.131-.133.133.133 0 0 0-.133.133.133.133 0 0 0 .265 0zm-1.851-1.059a.133.133 0 0 0-.133-.132.133.133 0 0 0-.132.132c0 .073.06.132.132.132.073 0 .133-.059.133-.132zm14.161-.641c-.088-.28-.492-1.494-.896-2.697l-.736-2.188-.183.297-.184.298.257.159.258.159-.15.388-.148.389h.569l-.153.397-.152.396h.642l-.152.397-.152.397h.569l-.152.397-.153.397h.57l-.153.397-.152.397h.544l-.164.264-.163.265h.596zm27.378-.153a.133.133 0 0 0-.132-.132.133.133 0 0 0-.132.132c0 .073.06.133.132.133.073 0 .132-.06.132-.133zm-29.104-5.159c0-.145-.052-.265-.117-.265-.064 0-.19.12-.28.265l-.163.265h.28c.154 0 .28-.12.28-.265zm-.264-.704c0-.097-.2-.806-.442-1.576l-.441-1.4-.233.144-.233.144.3.361.3.362-.17.276-.171.276h.617l-.152.397-.153.397h.57l-.153.397-.152.397h.256c.141 0 .257-.079.257-.175zm17.462-.206c0-.065-.137-.202-.305-.306l-.306-.189.189.306c.188.305.422.41.422.189zm-18.541-3.39c-.012-.181-.228-.92-.482-1.64l-.46-1.308-.214.346-.214.347.332.205.332.205-.182.295-.181.294h.617l-.153.397-.152.397h.569l-.152.396-.152.397h.256c.14 0 .247-.149.236-.33zm-22.999-1.108c0-.065-.137-.202-.305-.306l-.305-.189.188.306c.189.305.422.41.422.189zm40.394-2.441-.177-.177-.176.177-.177.176h.706zm.793-.265-.176-.176-.177.176-.176.177h.706zm6.88-2.381-.177-.176-.176.176-.177.176h.706zm.793-.265-.176-.176-.177.176-.176.177h.706zm.794-.264-.176-.177-.177.177-.176.176h.705zm1.075-.248c-.088-.088-.316-.098-.507-.021l-.348.139.508.02.507.022zm-54.697-1.296a.133.133 0 0 0-.133-.132.133.133 0 0 0-.132.132c0 .073.06.133.132.133.073 0 .133-.06.133-.133zm-4.305-13.256c-.088-.088-.316-.098-.507-.021l-.348.139.507.02.508.021zm-12.452-1.34-.177-.176v.705l.177-.176.176-.176zm14.375-1.279a.133.133 0 0 0-.132-.132.133.133 0 0 0-.132.132c0 .073.06.133.132.133.073 0 .132-.06.132-.133zm-.529-.264a.133.133 0 0 0-.132-.133.133.133 0 0 0-.132.133c0 .073.06.132.132.132.073 0 .132-.06.132-.132zm17.31-10.12c.358-.546.725-1.303.817-1.683l.168-.69-.614-.692-.615-.691-11.113-3.043c-14.905-4.082-14.697-4.022-14.986-4.312l-.255-.255.543-1.428.543-1.428v-1.902l-.487-.441c-.268-.243-1.47-.8-2.672-1.239-1.202-.438-2.526-.973-2.942-1.188l-.756-.391-1.074-1.839a299.874 299.874 0 0 1-3.071-5.49c-1.815-3.316-3.194-5.284-3.493-4.985-.063.063.861 1.976 2.054 4.251 1.193 2.276 2.104 4.202 2.025 4.281-.195.196.964 2.443 1.68 3.257l.58.659-.518-.794c-.548-.842-1.843-3.453-1.376-2.778.897 1.3 2.09 3.528 1.981 3.703l-.127.206.46.36.46.361-.264-.409-.265-.41.43.465.43.464.165-.165.166-.165v.648l.24-.148c.133-.082.43-.077.66.012l.42.16-.164.266-.164.265.595-.189.596-.189-.21.338-.208.338.44-.17.44-.168.396.152.395.151-.164.266-.164.265.54-.172.54-.171.196.316.195.316-.371-.192c-.205-.106-.025.104.399.467l.771.659-.706 1.94c-.777 2.134-.857 2.74-.398 3.023l.305.189-.192-.372-.193-.371.35.42.35.42.368-.124.368-.124-.203.328-.202.327.562-.178.563-.179v.515l.57-.149.57-.15-.206.336-.207.334.562-.178.563-.179v.515l.57-.149.57-.149-.206.335-.207.334.562-.178.563-.179v.516l.57-.15.57-.149-.206.335-.207.334.563-.178.562-.178v.515l.57-.15.571-.149-.207.335-.207.335.563-.179.562-.178v.6l.562-.178.563-.179-.199.322-.199.32.563-.178.562-.178v.6l.562-.178.563-.179-.188.304-.188.303.724-.181.723-.181-.205.331-.205.332.595-.19.596-.188-.188.303-.187.304.723-.182.723-.181-.205.331-.205.332.562-.179.563-.178v.515l.57-.15.57-.148-.206.334-.207.335.562-.179.563-.178v.6l.562-.178.562-.179-.198.322-.199.321.562-.178.563-.179v.6l.562-.178.562-.178-.187.303-.188.304.723-.182.723-.181-.205.331-.204.332.562-.179.562-.178v.515l.57-.149.571-.15-.207.335-.206.335.562-.179.562-.178v.6l.53-.167.529-.168v.548l.376-.145.376-.144.55.294.55.295v.469c0 .258-.188.7-.417.983l-.416.513.194-.396.194-.397-.224.203c-.123.113-.246.41-.273.662a3.943 3.943 0 0 1-.243.92l-.195.464H89.9zM62.656 120.26v-.353l.176.177.177.176-.177.177-.176.176zm.38-.794a71.44 71.44 0 0 1 .576-1.787l.464-1.39-.511-.41-.512-.41.623.303.624.304-.157.783c-.086.431-.396 1.284-.689 1.894-.292.61-.48.932-.419.713zm26.872 10.716a.133.133 0 0 0-.132-.132.133.133 0 0 0-.133.132.133.133 0 0 0 .265 0zm0-.794a.133.133 0 0 0-.132-.132.133.133 0 0 0-.133.132.133.133 0 0 0 .265 0zm-.53-.264a.133.133 0 0 0-.131-.133.133.133 0 0 0-.133.133.133.133 0 0 0 .265 0zm58.738-1.059a.133.133 0 0 0-.132-.132.133.133 0 0 0-.132.132c0 .073.06.133.132.133.073 0 .132-.06.132-.133zm-2.38-4.762a.133.133 0 0 0-.133-.132.133.133 0 0 0-.132.132c0 .073.059.132.132.132.073 0 .132-.06.132-.132zm-44.45-4.763a.133.133 0 0 0-.133-.132.133.133 0 0 0-.132.132c0 .073.059.133.132.133.073 0 .132-.06.132-.133zm-1.324-.793a.133.133 0 0 0-.132-.133.133.133 0 0 0-.132.133c0 .072.06.132.132.132.073 0 .132-.06.132-.132zm-1.323-.794a.133.133 0 0 0-.132-.132.133.133 0 0 0-.132.132c0 .073.06.132.132.132.073 0 .132-.06.132-.132zm-1.852-1.058a.133.133 0 0 0-.132-.133.133.133 0 0 0-.132.133c0 .072.06.132.132.132.073 0 .132-.06.132-.132zm-1.323-.794a.133.133 0 0 0-.132-.132.133.133 0 0 0-.132.132c0 .073.06.132.132.132.073 0 .132-.06.132-.132zm-34.131-.265a.133.133 0 0 0-.132-.132.133.133 0 0 0-.133.132.133.133 0 0 0 .265 0zm-2.117-.793a.133.133 0 0 0-.132-.133.133.133 0 0 0-.132.133c0 .072.06.132.132.132.073 0 .132-.06.132-.132zm34.396 0a.133.133 0 0 0-.132-.133.133.133 0 0 0-.132.133c0 .072.06.132.132.132.073 0 .132-.06.132-.132zm-1.852-1.059a.133.133 0 0 0-.132-.132.133.133 0 0 0-.132.132c0 .073.06.132.132.132.073 0 .132-.059.132-.132zm-1.852-1.058a.133.133 0 0 0-.132-.132.133.133 0 0 0-.133.132.133.133 0 0 0 .265 0zm-1.852-1.058a.133.133 0 0 0-.132-.133.133.133 0 0 0-.133.133.133.133 0 0 0 .265 0zm46.037.015c0-.064-.137-.202-.305-.305l-.305-.19.188.306c.189.305.422.41.422.19zm-47.89-1.074a.133.133 0 0 0-.131-.132.133.133 0 0 0-.133.132.133.133 0 0 0 .265 0zm46.303 0a.133.133 0 0 0-.132-.132.133.133 0 0 0-.133.132.133.133 0 0 0 .265 0zm-47.625-.794a.133.133 0 0 0-.132-.132.133.133 0 0 0-.133.132.133.133 0 0 0 .265 0zm46.302 0a.133.133 0 0 0-.132-.132.133.133 0 0 0-.133.132.133.133 0 1 0 .265 0zm-48.154-1.058a.133.133 0 0 0-.132-.132.133.133 0 0 0-.133.132.133.133 0 0 0 .265 0zm-1.852-1.058a.133.133 0 0 0-.132-.133.133.133 0 0 0-.133.133.133.133 0 0 0 .265 0zm45.508 0a.133.133 0 0 0-.132-.133.133.133 0 0 0-.132.133c0 .073.059.132.132.132.073 0 .132-.06.132-.132zm-47.36-1.059a.133.133 0 0 0-.133-.132.133.133 0 0 0-.132.132c0 .073.06.133.132.133.073 0 .133-.06.133-.133zm-1.852-1.058a.133.133 0 0 0-.133-.132.133.133 0 0 0-.132.132c0 .073.06.132.132.132.073 0 .133-.06.133-.132zm26.723-6.847c0-.055-.209-.263-.463-.463l-.463-.363.363.463c.345.44.563.581.563.363zm-2.382-1.852c0-.055-.208-.263-.463-.463l-.463-.363.363.463c.346.44.563.581.563.363zm-2.381-1.852c0-.055-.208-.263-.463-.463l-.463-.363.363.463c.346.44.563.58.563.363zm-32.896-9.866-.177-.176v.705l.177-.176.176-.177zm-.265-.794-.176-.176v.705l.176-.176.176-.176zm-.265-.793-.176-.177v.706l.176-.177.177-.176zm-.264-.794-.177-.177v.706l.177-.176.176-.177zm-.265-.794-.176-.176v.705l.176-.176.177-.177z" transform="translate(-35.595 -68.595)"/></svg>

